<?xml version="1.0" encoding="utf-8"?>
<!-- Generator: Adobe Illustrator 22.1.0, SVG Export Plug-In . SVG Version: 6.00 Build 0)  -->
<svg version="1.1" xmlns="http://www.w3.org/2000/svg" xmlns:xlink="http://www.w3.org/1999/xlink" x="0px" y="0px"
	 viewBox="0 0 100 100" style="enable-background:new 0 0 100 100;" xml:space="preserve">
<style type="text/css">
	.st0{fill:#010101;}
</style>
<g id="Livello_2">
</g>
<g id="Livello_1">
	<path class="st0" d="M88,43.1c-3.8,0-7.2,2.1-8.9,5.2c0,0,0,0,0,0c-1.1-2-2.9-3.6-5.1-4.5l-3.6-8.4l-3.7-9.8c0-0.2-0.1-0.4-0.2-0.5
		c-0.5-0.9-3.7-5.8-8.8-6.8c0,0,0,0-0.1,0c0,0,0,0,0,0l0,0c-0.1,0-0.2,0-0.3,0c-0.8,0-1.4,0.6-1.4,1.4c0,0.6,0.3,1.1,0.8,1.3l0,0
		c0,0,0,0,0,0c0.1,0,0.2,0.1,0.3,0.1c1.1,0.4,5.1,2.1,6.8,5.5c0,0,0,0,0,0l0.8,2c-2.3,2.4-11,10.8-25.3,14l-3.9-13.5
		c0,0,0-0.1,0-0.1l0,0c0,0,0-0.1,0-0.1l-1-3h2c0.8,0,1.4-0.6,1.4-1.4c0-0.8-0.6-1.4-1.4-1.4h-7.9c-0.8,0-1.4,0.6-1.4,1.4
		c0,0.8,0.6,1.4,1.4,1.4l3,0.1l1,3.6c0,0.2,0,0.3,0.1,0.5l0.4,1.4l-8.2,12.6c-2.2-1.1-4.7-1.7-7.3-1.7C8.4,42.5,1,49.9,1,59.1
		s7.4,16.6,16.6,16.6c8.6,0,15.7-6.6,16.5-14.9h6.5c0.5,0.8,1.4,1.4,2.4,1.4c0.2,0,0.4,0,0.6-0.1l1.3,1.7h-0.4v0.9h3.6v-0.9h-0.8
		l-2.1-2.7c0.4-0.5,0.6-1.1,0.6-1.7c0-0.2,0-0.4-0.1-0.6l22.7-20.7l2.1,4.9c-0.1,0-0.2,0-0.3,0c-5.6,0-10.2,4.5-10.2,10.2
		c0,2.9,1.2,5.6,3.2,7.4l14.8,15c0,0,0,0,0,0c0,0,0,0,0,0l0,0v0c0.2,0.2,0.6,0.4,0.9,0.4c0.4,0,0.7-0.1,0.9-0.4l0,0l0,0c0,0,0,0,0,0
		l14.8-15c2-1.9,3.2-4.5,3.2-7.4C98.2,47.7,93.6,43.1,88,43.1z M17.6,73.4C9.8,73.4,3.4,67,3.4,59.1s6.4-14.3,14.3-14.3
		c2.1,0,4.2,0.5,6,1.3l-7.9,12.2c-0.1,0.1-0.1,0.1-0.1,0.2v0c-0.1,0.2-0.2,0.4-0.2,0.7c0,0.8,0.7,1.5,1.5,1.5h14.9
		C31,67.9,24.9,73.4,17.6,73.4z M26.1,47.7c3.3,2.4,5.4,6.1,5.8,10.4H19.4L26.1,47.7z M34.2,58.1c-0.3-5.1-2.9-9.6-6.9-12.4L34.2,35
		l6,19.3h-3.1v0.9h1.2l0.4,0.5l1.8,2.3H34.2z M43.7,56.8c0,0-0.1,0-0.1,0l-3.4-11.6c3.5-0.8,18-4.6,25.6-13.8l1.6,4.2L43.7,56.8z
		 M93.3,60.2L80.1,73.6c0,0,0,0,0,0l0,0l0,0c-0.2,0.2-0.5,0.3-0.8,0.3c-0.3,0-0.6-0.1-0.9-0.3v0l0,0c0,0,0,0,0,0c0,0,0,0,0,0
		L65.1,60.2C63.3,58.6,62,56.5,62,54c0-4.9,3.6-8.8,8.9-8.8c0.2,0,0.4,0,0.6,0l6.3,15c0,0,0,0,0,0l0,0l0,0c0.2,0.5,0.8,0.9,1.4,0.9
		c0.9,0,1.5-0.7,1.5-1.5c0-0.3-0.1-0.5-0.2-0.7l-5.3-12.4c1.7,1,3.1,2.5,4,4c1.6-2.7,4.7-5.2,8.3-5.2c5.2,0,8.5,3,9.2,7.9
		C96.9,55.6,95.2,58.6,93.3,60.2z"/>
</g>
</svg>
