<?xml version="1.0" encoding="utf-8"?>
<!-- Generator: Adobe Illustrator 22.1.0, SVG Export Plug-In . SVG Version: 6.00 Build 0)  -->
<svg version="1.1" xmlns="http://www.w3.org/2000/svg" xmlns:xlink="http://www.w3.org/1999/xlink" x="0px" y="0px"
	 viewBox="0 0 100 100" style="enable-background:new 0 0 100 100;" xml:space="preserve">
<style type="text/css">
	.st0{fill:#010101;}
</style>
<g id="Livello_2">
</g>
<g id="Livello_1">
	<path class="st0" d="M98.7,73.3l-15-35.1l-5.5-14.7c-0.2-1-1.1-1.7-2.2-1.7c-1.2,0-2.2,1-2.2,2.2c0,0.3,0.1,0.7,0.2,1l1.1,3
		c-3.4,3.6-16.5,16.3-38,21l-5.9-20.3c0,0,0-0.1,0-0.1l0,0c-0.3-0.9-1.1-1.5-2.1-1.5c-1.2,0-2.2,1-2.2,2.2c0,0.3,0.1,0.6,0.2,0.8
		l0.7,2.1L1.5,72.5c-0.1,0.1-0.2,0.2-0.2,0.3l0,0c-0.2,0.3-0.3,0.7-0.3,1c0,1.2,1,2.2,2.2,2.2h35.7c0.7,1.3,2,2.1,3.6,2.1
		c2.3,0,4.1-1.8,4.1-4.1c0-0.3,0-0.6-0.1-0.9l34.1-31l13.9,33c0.3,0.9,1.2,1.5,2.2,1.5c1.3,0,2.3-1,2.3-2.3
		C99,74,98.9,73.6,98.7,73.3z M38.9,72H7.1l22.2-34.7l10.4,33.8C39.4,71.4,39.1,71.7,38.9,72z M43.5,70.1c-0.1,0-0.1,0-0.2,0
		l-5.1-17.5c5.2-1.2,27-6.9,38.4-20.7l2.4,6.4L43.5,70.1z"/>
</g>
</svg>
