<?xml version="1.0" encoding="utf-8"?>
<!-- Generator: Adobe Illustrator 22.1.0, SVG Export Plug-In . SVG Version: 6.00 Build 0)  -->
<svg version="1.1" id="Livello_1" xmlns="http://www.w3.org/2000/svg" xmlns:xlink="http://www.w3.org/1999/xlink" x="0px" y="0px"
	 viewBox="0 0 100 100" style="enable-background:new 0 0 100 100;" xml:space="preserve">
<style type="text/css">
	.st0{fill:#010101;}
</style>
<g>
	<path class="st0" d="M38.5,59.9l-20.9,21c-0.3,0.2-0.4,0.6-0.4,1c0,0.7,0.6,1.3,1.3,1.3c0.4,0,0.8-0.2,1-0.5l20.9-20.9l0,0
		c0.3-0.2,0.4-0.6,0.4-1c0-0.7-0.6-1.3-1.3-1.3C39.1,59.5,38.7,59.7,38.5,59.9z"/>
	<path class="st0" d="M96.5,86.8c1.3-2.6,2-5.5,2-8.6c0-10.8-8.7-19.5-19.5-19.5c-1.4,0-2.8,0.1-4.1,0.4L61.8,45.8l19-19h0L88,24
		l9.8-14.7l-6.9-7.1l-15.1,10L74,18.9L54.4,38.3L39.8,23.5c0.2-1.2,0.3-2.5,0.3-3.9C40,8.9,31.1,0.3,20.4,0.4c-3.1,0-6,0.8-8.6,2.1
		l10.4,10l-8.8,8.9L3,11.5c-1.3,2.6-1.9,5.6-1.9,8.7c0.1,10.8,9,19.4,19.8,19.2c1.1,0,2.1-0.1,3.1-0.3l9.9,9.9
		c-0.1,0.1-0.3,0.2-0.4,0.4L3.1,79.1c0,0-4.6,5.1,0,9.6l7.4,7.3c0,0,4.7,6.1,10.8,0l29.9-29.6c0,0,0.1,0,0.2,0l8.3,8.3
		c-0.2,1.1-0.3,2.3-0.3,3.4c0,10.8,8.7,19.5,19.5,19.5c3.1,0,6-0.7,8.6-2L77.3,85.6l9-8.8L96.5,86.8z M78,13.4l12.5-8.1l4.5,4.2
		l-8.1,13.1l-6.4,1.7l-1.8-1.7l-2.8-2.8L78,13.4z M74.7,21.4l4.2,3.9L60,44l-3.9-4L74.7,21.4z M19.4,94.2c0,0-3,3.7-6,0.7l-7.8-8.1
		c0,0-3.2-2.5,0-5.6l30.1-30.3l13.6,13.5L19.4,94.2z M83.3,75.4l-6.9,6.9c-3,3-1.3,5-1.3,5l6.4,6.3C60,94.2,63.4,73.4,63.4,73.4
		L25.3,35.5C4.5,36.2,4.4,17.2,4.4,17.2l5.9,6.2c2.7,2.7,5.8-0.6,5.8-0.6l7.8-8.1c3-3-1.2-5.9-1.2-5.9L17.6,4
		c20.6-0.5,18.6,20.3,18.6,20.3l38.4,38.4c21.5-2,19.9,18.1,19.9,18.1L89,75.4C86.1,72.5,83.3,75.4,83.3,75.4z"/>
</g>
</svg>
